<?xml version="1.0" standalone="no"?>
<!DOCTYPE svg PUBLIC "-//W3C//DTD SVG 20010904//EN"
 "http://www.w3.org/TR/2001/REC-SVG-20010904/DTD/svg10.dtd">
<svg version="1.0" xmlns="http://www.w3.org/2000/svg"
 width="94.000000pt" height="94.000000pt" viewBox="0 0 94.000000 94.000000"
 preserveAspectRatio="xMidYMid meet">
<metadata>
Created by potrace 1.11, written by Peter Selinger 2001-2013
</metadata>
<g transform="translate(0.000000,94.000000) scale(0.100000,-0.100000)"
fill="#000000" stroke="none">
<path d="M380 930 c0 -5 5 -10 10 -10 6 0 10 5 10 10 0 6 -4 10 -10 10 -5 0
-10 -4 -10 -10z"/>
<path d="M350 910 c0 -12 40 -33 48 -25 4 4 -2 13 -12 21 -23 16 -36 18 -36 4z"/>
<path d="M564 897 c14 -13 26 -30 26 -37 0 -7 8 -10 20 -7 20 5 24 -9 23 -85
0 -21 2 -21 28 -7 19 9 19 9 10 -10 -12 -22 -5 -52 13 -49 6 1 28 -6 49 -15
25 -11 37 -22 37 -36 0 -12 7 -21 15 -21 13 0 13 -3 3 -20 -11 -17 -10 -22 0
-29 18 -11 15 -21 -10 -49 -16 -16 -19 -25 -11 -33 6 -6 9 -17 6 -24 -2 -8 5
-19 17 -25 17 -9 19 -14 9 -26 -11 -13 -14 -13 -21 -1 -5 11 -20 13 -51 10
-38 -5 -47 -2 -60 18 -18 25 -21 24 -32 -10 -5 -15 -4 -21 3 -17 6 3 13 2 17
-4 3 -5 19 -10 35 -10 40 0 60 -9 60 -28 0 -8 7 -23 16 -33 14 -16 13 -19 -20
-34 -39 -19 -78 -13 -58 7 21 21 13 27 -20 17 -27 -7 -35 -6 -46 8 -11 16 -14
16 -22 3 -5 -8 -10 -18 -10 -22 0 -7 34 -21 65 -25 80 -11 98 -17 102 -34 3
-11 14 -19 27 -19 20 -1 20 -1 2 -11 -10 -6 -34 -9 -54 -5 -20 3 -41 1 -48 -5
-8 -7 -14 -7 -19 1 -9 15 -28 12 -22 -4 3 -8 1 -17 -6 -20 -8 -3 -5 -10 8 -22
11 -9 13 -14 5 -11 -8 3 -34 11 -57 18 -29 7 -43 17 -43 28 0 9 -7 26 -15 38
-8 12 -11 24 -6 27 4 3 6 18 3 32 -3 18 1 31 12 39 15 12 15 13 -4 18 -22 6
-21 13 -25 -118 -2 -44 -6 -116 -10 -161 -6 -59 -4 -83 4 -88 7 -4 35 -2 64 4
214 50 365 237 365 449 0 131 -46 240 -139 333 -60 61 -150 110 -223 123 l-39
6 27 -24z"/>
<path d="M260 876 c-98 -52 -182 -149 -226 -261 -28 -74 -26 -239 5 -315 63
-154 194 -263 350 -292 70 -13 82 -7 75 41 -1 14 -5 49 -8 76 -7 63 -31 131
-40 116 -9 -14 -53 -15 -61 -1 -7 12 14 21 49 24 29 1 27 23 -3 63 -19 23 -26
23 -22 1 0 -5 -5 -8 -11 -9 -7 0 -3 -4 10 -9 12 -5 22 -14 22 -20 0 -16 -18
-12 -40 10 l-21 21 7 -25 c3 -13 1 -27 -5 -30 -6 -4 -11 0 -11 8 0 16 -5 19
-35 19 -30 0 -36 -3 -30 -13 4 -6 10 -8 15 -5 5 3 11 1 14 -3 3 -5 -6 -14 -20
-20 -20 -10 -26 -9 -30 2 -8 21 -51 17 -57 -6 -7 -23 -52 -22 -52 2 0 8 -6 15
-14 15 -24 0 -23 21 3 34 13 8 41 14 60 15 36 1 47 10 24 19 -8 3 -3 9 12 15
l25 10 -27 7 c-18 5 -25 11 -21 22 4 9 -1 19 -11 25 -23 13 -12 26 17 21 28
-6 50 16 37 37 -8 13 -11 12 -22 -3 -16 -22 -48 -13 -48 13 0 26 29 52 51 47
12 -3 19 0 19 9 0 8 -6 14 -14 14 -7 0 -19 7 -26 15 -9 11 -10 15 -1 15 8 0
10 8 6 20 -7 23 -3 24 28 9 15 -7 13 -2 -8 15 -27 23 -27 25 -6 19 19 -5 22
-3 17 13 -3 10 -2 25 3 33 7 11 11 10 20 -5 11 -21 14 -14 11 28 -1 27 13 44
30 33 6 -4 5 -13 -2 -25 -10 -16 -8 -25 18 -56 30 -37 49 -45 49 -21 0 6 -10
16 -22 22 -24 10 -31 25 -13 25 19 0 10 39 -12 54 -17 12 -19 18 -9 29 9 11 8
17 -4 27 -8 7 -15 19 -15 26 0 12 5 12 30 -1 39 -20 47 -19 25 5 -10 11 -15
23 -12 26 7 8 -10 44 -21 44 -4 -1 -27 -12 -52 -24z m-34 -641 c-21 -16 -32
-13 -21 4 3 6 14 11 23 11 15 -1 15 -2 -2 -15z"/>
<path d="M465 820 c-3 -5 -1 -10 4 -10 6 0 11 5 11 10 0 6 -2 10 -4 10 -3 0
-8 -4 -11 -10z"/>
<path d="M502 764 c-1 -18 3 -24 18 -24 11 0 20 4 20 10 0 5 -8 6 -17 3 -12
-5 -15 -2 -10 10 3 9 3 18 -1 21 -4 2 -9 -6 -10 -20z"/>
<path d="M370 714 c0 -8 5 -12 10 -9 6 3 10 10 10 16 0 5 -4 9 -10 9 -5 0 -10
-7 -10 -16z"/>
<path d="M250 641 c0 -5 7 -14 15 -21 16 -14 18 -10 9 14 -6 17 -24 22 -24 7z"/>
<path d="M480 645 c0 -3 9 -14 20 -25 20 -20 25 -15 14 14 -5 14 -34 23 -34
11z"/>
<path d="M440 590 c6 -11 15 -18 20 -15 13 8 0 35 -16 35 -12 0 -12 -4 -4 -20z"/>
<path d="M635 560 c-4 -12 1 -27 13 -41 22 -23 34 -14 27 20 -8 44 -29 55 -40
21z"/>
<path d="M476 545 c4 -8 8 -15 10 -15 2 0 4 7 4 15 0 8 -4 15 -10 15 -5 0 -7
-7 -4 -15z"/>
<path d="M400 522 c0 -5 8 -16 18 -25 17 -16 19 -16 19 0 0 17 -14 33 -29 33
-5 0 -8 -4 -8 -8z"/>
<path d="M299 499 c-10 -6 -7 -9 14 -9 29 0 35 5 14 13 -8 3 -20 1 -28 -4z"/>
<path d="M410 461 c0 -5 5 -13 10 -16 6 -3 10 -2 10 4 0 5 -4 13 -10 16 -5 3
-10 2 -10 -4z"/>
<path d="M466 451 c-3 -5 1 -12 10 -15 20 -8 29 -1 19 13 -8 13 -22 14 -29 2z"/>
<path d="M274 393 c-22 -22 -2 -29 26 -10 17 12 18 16 6 20 -9 4 -23 -1 -32
-10z"/>
<path d="M410 363 c0 -10 4 -14 8 -8 4 6 11 13 16 18 5 4 2 7 -7 7 -10 0 -17
-8 -17 -17z"/>
<path d="M289 340 l-24 -20 30 6 c39 9 47 13 40 25 -9 14 -20 11 -46 -11z"/>
<path d="M550 296 c0 -2 7 -7 16 -10 8 -3 12 -2 9 4 -6 10 -25 14 -25 6z"/>
<path d="M446 271 c-8 -12 12 -91 27 -106 6 -6 8 9 5 43 -5 54 -20 83 -32 63z"/>
</g>
</svg>
